<svg width="73" height="72" viewBox="0 0 73 72" fill="none" xmlns="http://www.w3.org/2000/svg">
<rect x="5.82672" y="5" width="62" height="62" rx="31" fill="#5B94E9"/>
<rect x="5.82672" y="5" width="62" height="62" rx="31" stroke="white" stroke-width="10"/>
<path d="M36.6601 33.6667C38.9152 33.6667 40.7434 31.8385 40.7434 29.5833C40.7434 27.3282 38.9152 25.5 36.6601 25.5C34.4049 25.5 32.5767 27.3282 32.5767 29.5833C32.5767 31.8385 34.4049 33.6667 36.6601 33.6667Z" stroke="white" stroke-width="2" stroke-linejoin="round"/>
<path d="M46.16 39.5V45.3333" stroke="white" stroke-width="1.5" stroke-linecap="round" stroke-linejoin="round"/>
<path d="M48.4934 41.8333L46.1601 39.5L43.8267 41.8333" stroke="white" stroke-width="1.5" stroke-linecap="round" stroke-linejoin="round"/>
<path d="M40.3267 38.3333H36.2434C36.0886 38.3333 36.0113 38.3333 35.9458 38.3343C31.63 38.4049 28.1484 41.8866 28.0778 46.2024C28.0767 46.2678 28.0767 46.3452 28.0767 46.4999V46.4999H40.3267" stroke="white" stroke-width="2" stroke-linecap="round" stroke-linejoin="round"/>
</svg>
